<?xml version="1.0" encoding="UTF-8"?>
<svg id="Capa_1" data-name="Capa 1" xmlns="http://www.w3.org/2000/svg" viewBox="0 0 15.03 15.03">
  <defs>
    <style>
      .cls-1 {
        fill: #054f6a;
      }
    </style>
  </defs>
  <path class="cls-1" d="M1.41,2.82c-.2,0-.39-.04-.56-.11-.17-.07-.32-.17-.45-.3-.13-.13-.23-.28-.3-.45-.07-.17-.11-.36-.11-.55s.04-.39,.11-.56c.07-.17,.17-.32,.3-.45,.13-.13,.28-.23,.45-.3,.17-.07,.36-.11,.56-.11s.39,.04,.56,.11c.17,.07,.32,.17,.45,.3,.13,.13,.23,.28,.3,.45,.07,.17,.11,.36,.11,.56s-.04,.38-.11,.55c-.07,.17-.17,.32-.3,.45-.13,.13-.28,.23-.45,.3-.17,.07-.36,.11-.56,.11Zm0-.57c.16,0,.3-.04,.41-.12,.12-.08,.2-.18,.26-.31,.06-.13,.09-.27,.09-.42s-.03-.29-.09-.42c-.06-.13-.15-.23-.26-.31-.12-.08-.25-.11-.41-.11s-.3,.04-.41,.11c-.12,.08-.2,.18-.27,.31-.06,.13-.09,.27-.09,.42s.03,.29,.09,.42c.06,.13,.15,.23,.27,.31,.12,.08,.25,.12,.41,.12Z"/>
  <path class="cls-1" d="M6.52,2.75V.07h1.01c.21,0,.39,.04,.53,.11,.14,.08,.25,.18,.32,.31,.07,.13,.11,.27,.11,.42,0,.17-.04,.32-.12,.45s-.19,.24-.33,.31l.6,1.07h-.67l-.5-.98h-.34v.98h-.6Zm.6-1.47h.38c.11,0,.2-.03,.27-.1,.06-.07,.1-.15,.1-.25,0-.11-.03-.2-.1-.26-.07-.06-.16-.1-.27-.1h-.38v.71Z"/>
  <path class="cls-1" d="M1.1,8.85v-2.15H.23v-.53H2.59v.53h-.87v2.15h-.62Z"/>
  <g>
    <path class="cls-1" d="M7.99,6.78c-.12-.08-.25-.11-.41-.11s-.3,.04-.41,.11c-.12,.08-.2,.18-.27,.31-.06,.13-.09,.27-.09,.42s.03,.29,.09,.42c.06,.13,.15,.23,.27,.31,.12,.08,.25,.12,.41,.12s.3-.04,.41-.12c.12-.08,.2-.18,.26-.31,.06-.13,.09-.27,.09-.42s-.03-.29-.09-.42c-.06-.13-.15-.23-.26-.31Z"/>
    <path class="cls-1" d="M4.79,4.75v5.52h5.58V4.75H4.79Zm4.1,3.32c-.07,.17-.17,.32-.3,.45-.13,.13-.28,.23-.45,.3-.17,.07-.36,.11-.56,.11s-.39-.04-.56-.11c-.17-.07-.32-.17-.45-.3-.13-.13-.23-.28-.3-.45-.07-.17-.11-.36-.11-.55s.04-.39,.11-.56c.07-.17,.17-.32,.3-.45,.13-.13,.28-.23,.45-.3,.17-.07,.36-.11,.56-.11s.39,.04,.56,.11c.17,.07,.32,.17,.45,.3,.13,.13,.23,.28,.3,.45,.07,.17,.11,.36,.11,.56s-.04,.38-.11,.55Z"/>
  </g>
  <path class="cls-1" d="M0,14.96l.13-2.68H.71l.71,1.26,.69-1.26h.59l.13,2.68h-.61l-.08-1.75-.56,1.05h-.32l-.59-1.03-.07,1.74H0Z"/>
  <path class="cls-1" d="M14.61,14.09l.42,.38c-.08,.1-.17,.2-.29,.28-.12,.09-.25,.15-.4,.21-.15,.05-.3,.08-.47,.08-.27,0-.52-.06-.73-.18-.21-.12-.37-.29-.49-.5-.12-.21-.18-.45-.18-.72,0-.2,.03-.38,.1-.56,.07-.17,.16-.32,.29-.45s.27-.23,.44-.3c.17-.07,.36-.11,.57-.11,.25,0,.47,.05,.66,.14,.19,.09,.35,.22,.47,.39l-.42,.4c-.08-.11-.18-.2-.29-.27-.11-.07-.24-.1-.4-.1-.16,0-.3,.04-.42,.11-.12,.08-.21,.18-.27,.31-.06,.13-.1,.27-.1,.43s.03,.3,.1,.43c.06,.13,.15,.23,.27,.3,.12,.07,.25,.11,.41,.11,.13,0,.24-.02,.33-.05s.16-.08,.22-.13c.06-.05,.12-.11,.17-.17Z"/>
  <rect class="cls-1" x="12.8" y="7.25" width="1.91" height=".53"/>
  <rect class="cls-1" x="12.8" y="1.14" width="1.91" height=".53"/>
  <polygon class="cls-1" points="7.93 12.28 7.25 12.28 6.24 14.96 6.88 14.96 7.57 12.86 8.25 14.96 8.92 14.96 7.93 12.28"/>
</svg>